<?xml version="1.0" standalone="no"?>
<!DOCTYPE svg PUBLIC "-//W3C//DTD SVG 20010904//EN"
 "http://www.w3.org/TR/2001/REC-SVG-20010904/DTD/svg10.dtd">
<svg version="1.0" xmlns="http://www.w3.org/2000/svg"
 width="512.000000pt" height="512.000000pt" viewBox="0 0 512.000000 512.000000"
 preserveAspectRatio="xMidYMid meet">

<g transform="translate(0.000000,512.000000) scale(0.100000,-0.100000)"
fill="#000000" stroke="none">
<path d="M2795 5106 c-97 -24 -191 -85 -239 -154 -26 -39 -28 -40 -100 -44
-201 -13 -368 -179 -397 -393 -6 -50 -9 -264 -7 -565 3 -469 4 -487 24 -531
45 -97 134 -164 234 -176 42 -5 49 -9 55 -32 34 -138 139 -306 260 -418 l85
-78 0 -75 c0 -83 -24 -151 -59 -169 -17 -10 -28 -6 -68 23 -56 39 -108 56
-178 56 l-49 0 46 48 c26 26 54 64 63 84 21 52 19 134 -6 187 -27 61 -218 254
-283 286 -93 47 -186 31 -271 -46 l-55 -51 0 49 c0 110 -48 195 -133 238 -49
24 -59 25 -220 25 -202 0 -235 -8 -297 -70 -52 -51 -70 -99 -70 -185 l0 -58
-46 42 c-58 55 -116 81 -179 81 -84 0 -136 -33 -267 -167 -100 -103 -118 -127
-132 -173 -20 -66 -20 -74 -1 -137 10 -33 32 -70 61 -102 l46 -51 -44 0 c-105
0 -197 -51 -241 -134 -18 -36 -22 -62 -25 -196 -3 -95 0 -174 7 -206 25 -112
119 -184 238 -184 35 0 63 -4 63 -8 0 -4 -16 -24 -36 -43 -54 -52 -77 -104
-77 -174 -1 -89 21 -125 158 -262 110 -110 127 -123 179 -138 94 -27 175 -4
245 69 19 20 39 36 43 36 4 0 8 -28 8 -63 0 -48 6 -76 26 -115 52 -104 120
-132 327 -132 l139 0 28 -30 c27 -29 30 -30 124 -30 l96 0 0 -260 0 -260 -55
0 c-46 0 -60 -4 -87 -29 l-33 -29 0 -152 0 -152 33 -29 33 -29 1470 2 1471 3
24 28 c23 27 24 34 24 177 0 142 -1 150 -24 176 -20 24 -32 28 -90 32 l-66 4
0 259 0 259 98 0 c101 1 119 7 140 47 15 28 16 729 2 823 -16 103 -77 215
-155 289 -36 33 -85 71 -108 82 -23 12 -199 80 -391 150 -192 70 -358 136
-369 146 -34 30 -47 77 -47 165 l0 83 41 30 c118 86 235 256 288 416 l22 67
48 6 c62 8 143 49 177 89 15 18 38 55 51 84 l24 52 -3 488 -3 488 -33 95 c-80
230 -231 400 -446 500 -155 73 -211 80 -666 79 -278 0 -410 -4 -445 -13z m976
-182 c203 -72 353 -222 427 -426 27 -73 27 -75 30 -392 3 -304 2 -318 -15
-311 -10 4 -35 9 -55 12 l-38 6 0 121 c0 138 -11 188 -47 222 -44 41 -77 40
-196 -5 -59 -22 -155 -52 -214 -68 -94 -24 -127 -28 -248 -28 -103 0 -157 5
-204 18 -94 26 -231 93 -354 175 -60 39 -124 74 -143 78 -94 17 -189 -24 -230
-101 -12 -22 -45 -121 -75 -220 -29 -99 -53 -181 -54 -182 -1 -2 -24 -7 -51
-13 -27 -5 -59 -12 -72 -16 l-23 -7 3 369 c3 293 7 377 18 406 47 118 148 188
270 188 93 0 124 13 154 65 14 24 45 60 68 79 75 64 85 65 548 63 l415 -2 86
-31z m-979 -825 c129 -84 264 -149 373 -181 69 -20 103 -23 245 -23 145 0 178
4 270 27 58 15 142 40 187 56 46 16 85 27 88 24 3 -3 5 -72 5 -154 0 -181 1
-182 113 -191 108 -8 157 -48 157 -129 -1 -81 -59 -128 -160 -128 -93 0 -113
-17 -134 -112 -54 -242 -244 -449 -491 -535 -73 -25 -92 -28 -220 -27 -125 0
-149 3 -220 27 -106 35 -194 88 -278 167 -114 106 -177 213 -216 366 -11 42
-27 84 -36 93 -11 11 -42 18 -100 22 -76 5 -88 8 -115 34 -37 35 -52 84 -39
127 19 67 74 98 175 98 40 0 55 5 71 23 12 13 45 104 83 232 34 116 68 220 76
233 8 12 24 22 36 22 12 0 70 -32 130 -71z m-1127 -914 c23 -22 25 -31 25
-123 0 -81 3 -104 18 -120 22 -26 146 -73 169 -65 10 3 50 37 89 75 103 98
109 97 246 -40 138 -138 138 -143 38 -246 -57 -59 -70 -79 -70 -104 0 -38 44
-142 67 -159 10 -8 50 -13 102 -13 52 0 80 -4 71 -9 -24 -14 -381 -143 -384
-139 -1 1 -8 29 -15 61 -43 198 -221 377 -418 417 -134 28 -310 -6 -417 -79
-146 -101 -246 -285 -246 -456 0 -134 63 -278 165 -380 81 -82 160 -126 272
-151 73 -16 192 -15 237 2 15 6 16 -16 16 -245 l0 -251 -145 0 c-142 0 -147 1
-170 25 -23 22 -25 32 -25 114 0 121 -7 136 -77 168 -106 46 -112 45 -196 -36
-48 -47 -84 -73 -105 -77 -31 -6 -39 -1 -141 101 -60 59 -112 118 -115 131 -9
33 6 58 80 136 37 38 64 75 64 87 0 11 -12 50 -26 86 -34 85 -53 95 -174 95
-83 0 -93 2 -115 25 -24 23 -25 28 -25 170 l0 147 29 29 c29 28 32 29 128 29
115 0 124 5 161 99 34 83 31 93 -53 181 -47 49 -75 87 -75 101 0 15 37 60 112
136 139 140 141 141 237 49 90 -87 106 -92 184 -60 97 39 107 56 107 171 0 86
3 99 22 120 21 22 27 23 175 23 150 0 155 -1 178 -25z m1320 -593 c72 -23 96
-26 240 -26 144 0 168 3 240 26 44 14 87 28 96 32 14 6 17 -3 21 -59 8 -90 46
-165 110 -216 27 -21 61 -42 74 -45 13 -3 24 -10 24 -14 0 -4 -19 -34 -43 -66
-126 -171 -312 -268 -517 -268 -116 -1 -180 14 -288 65 -57 28 -104 60 -152
105 -61 58 -130 145 -130 164 0 4 18 15 39 25 51 23 115 89 140 145 11 25 23
73 27 108 6 53 9 62 23 56 9 -4 52 -18 96 -32z m-1329 -59 c122 -63 203 -178
212 -303 l4 -65 -46 -35 c-79 -58 -156 -176 -179 -272 -8 -31 -45 -46 -133
-55 -118 -11 -255 52 -332 153 -54 70 -76 136 -76 234 0 74 4 94 30 151 51
107 122 174 227 211 40 14 73 18 142 15 77 -3 99 -8 151 -34z m884 -356 c49
-86 187 -221 280 -274 381 -214 846 -101 1079 262 l47 73 252 -93 c138 -50
273 -105 299 -121 26 -16 65 -52 85 -79 71 -93 72 -99 76 -492 l3 -353 -45 0
-46 0 0 247 c0 230 -1 250 -21 290 -15 30 -35 52 -67 71 l-47 27 -1180 3
c-863 2 -1194 0 -1233 -8 -69 -15 -124 -67 -140 -133 -7 -28 -12 -134 -12
-271 l0 -226 -40 0 -41 0 3 358 3 357 26 56 c32 68 87 131 141 162 31 17 515
202 538 206 3 0 21 -28 40 -62z m1854 -603 c14 -6 16 -66 16 -580 l0 -574
-1190 0 -1190 0 0 568 c0 428 3 571 12 580 9 9 284 12 1174 12 639 0 1169 -3
1178 -6z m196 -1364 l0 -50 -1370 0 -1370 0 0 50 0 50 1370 0 1370 0 0 -50z"/>
<path d="M3145 1174 c-143 -74 -153 -262 -19 -340 53 -31 133 -35 181 -10 60
30 113 114 113 176 0 34 -22 91 -47 121 -53 62 -162 88 -228 53z m103 -156
c16 -16 15 -23 -4 -42 -12 -12 -20 -13 -35 -6 -19 10 -26 40 -12 53 10 11 38
8 51 -5z"/>
</g>
</svg>
